<svg xmlns="http://www.w3.org/2000/svg" viewBox="0 0 400 240" fill="none">
  <defs>
    <linearGradient id="cloudGrad" x1="0%" y1="0%" x2="100%" y2="100%">
      <stop offset="0%" style="stop-color:#1FC7C7;stop-opacity:0.8" />
      <stop offset="100%" style="stop-color:#0e6262;stop-opacity:0.6" />
    </linearGradient>
  </defs>
  <rect width="400" height="240" rx="12" fill="#0a1628"/>
  <!-- Cloud nodes -->
  <!-- Central cloud hub -->
  <circle cx="200" cy="120" r="30" fill="#1FC7C7" opacity="0.15" stroke="#1FC7C7" stroke-width="2"/>
  <text x="200" y="117" font-family="Inter, sans-serif" font-size="9" fill="#1FC7C7" text-anchor="middle" font-weight="600">CORE</text>
  <text x="200" y="130" font-family="Inter, sans-serif" font-size="8" fill="#1FC7C7" text-anchor="middle" opacity="0.7">CLOUD</text>
  <!-- Satellite nodes -->
  <circle cx="80" cy="60" r="22" fill="#1FC7C7" opacity="0.1" stroke="#1FC7C7" stroke-width="1.5"/>
  <text x="80" y="64" font-family="Inter, sans-serif" font-size="8" fill="#1FC7C7" text-anchor="middle">API</text>
  <circle cx="320" cy="60" r="22" fill="#1FC7C7" opacity="0.1" stroke="#1FC7C7" stroke-width="1.5"/>
  <text x="320" y="64" font-family="Inter, sans-serif" font-size="8" fill="#1FC7C7" text-anchor="middle">DB</text>
  <circle cx="60" cy="180" r="22" fill="#1FC7C7" opacity="0.1" stroke="#1FC7C7" stroke-width="1.5"/>
  <text x="60" y="184" font-family="Inter, sans-serif" font-size="8" fill="#1FC7C7" text-anchor="middle">CDN</text>
  <circle cx="340" cy="180" r="22" fill="#1FC7C7" opacity="0.1" stroke="#1FC7C7" stroke-width="1.5"/>
  <text x="340" y="184" font-family="Inter, sans-serif" font-size="8" fill="#1FC7C7" text-anchor="middle">LB</text>
  <circle cx="200" cy="30" r="18" fill="#1FC7C7" opacity="0.1" stroke="#1FC7C7" stroke-width="1.5"/>
  <text x="200" y="34" font-family="Inter, sans-serif" font-size="8" fill="#1FC7C7" text-anchor="middle">DNS</text>
  <circle cx="200" cy="210" r="18" fill="#1FC7C7" opacity="0.1" stroke="#1FC7C7" stroke-width="1.5"/>
  <text x="200" y="214" font-family="Inter, sans-serif" font-size="8" fill="#1FC7C7" text-anchor="middle">SEC</text>
  <!-- Connection lines -->
  <line x1="200" y1="90" x2="200" y2="48" stroke="#1FC7C7" stroke-width="1.5" stroke-dasharray="4,3" opacity="0.5"/>
  <line x1="200" y1="150" x2="200" y2="192" stroke="#1FC7C7" stroke-width="1.5" stroke-dasharray="4,3" opacity="0.5"/>
  <line x1="172" y1="103" x2="102" y2="72" stroke="#1FC7C7" stroke-width="1.5" stroke-dasharray="4,3" opacity="0.5"/>
  <line x1="228" y1="103" x2="298" y2="72" stroke="#1FC7C7" stroke-width="1.5" stroke-dasharray="4,3" opacity="0.5"/>
  <line x1="172" y1="138" x2="82" y2="166" stroke="#1FC7C7" stroke-width="1.5" stroke-dasharray="4,3" opacity="0.5"/>
  <line x1="228" y1="138" x2="318" y2="166" stroke="#1FC7C7" stroke-width="1.5" stroke-dasharray="4,3" opacity="0.5"/>
  <!-- Animated dots on paths (static positions) -->
  <circle cx="150" cy="88" r="3" fill="#1FC7C7" opacity="0.9"/>
  <circle cx="260" cy="86" r="3" fill="#1FC7C7" opacity="0.9"/>
  <circle cx="115" cy="152" r="3" fill="#1FC7C7" opacity="0.9"/>
  <circle cx="285" cy="150" r="3" fill="#1FC7C7" opacity="0.9"/>
</svg>
