<svg xmlns="http://www.w3.org/2000/svg" viewBox="0 0 400 240" fill="none">
  <defs>
    <linearGradient id="g1" x1="0%" y1="0%" x2="100%" y2="100%">
      <stop offset="0%" style="stop-color:#1FC7C7;stop-opacity:1" />
      <stop offset="100%" style="stop-color:#0e6262;stop-opacity:1" />
    </linearGradient>
  </defs>
  <rect width="400" height="240" rx="12" fill="#0f2027"/>
  <!-- Nav -->
  <rect width="400" height="40" rx="0" fill="#1a3040"/>
  <rect x="16" y="14" width="60" height="12" rx="6" fill="#1FC7C7"/>
  <circle cx="360" cy="20" r="8" fill="#1FC7C7" opacity="0.6"/>
  <rect x="260" y="16" width="40" height="8" rx="4" fill="white" opacity="0.2"/>
  <rect x="310" y="16" width="30" height="8" rx="4" fill="white" opacity="0.2"/>
  <!-- Hero banner -->
  <rect x="0" y="40" width="400" height="80" fill="url(#g1)" opacity="0.85"/>
  <rect x="16" y="56" width="120" height="14" rx="7" fill="white" opacity="0.9"/>
  <rect x="16" y="76" width="80" height="10" rx="5" fill="white" opacity="0.5"/>
  <rect x="16" y="94" width="60" height="20" rx="10" fill="white"/>
  <!-- Products grid -->
  <rect x="16" y="136" width="80" height="80" rx="8" fill="#1a3040"/>
  <rect x="104" y="136" width="80" height="80" rx="8" fill="#1a3040"/>
  <rect x="192" y="136" width="80" height="80" rx="8" fill="#1a3040"/>
  <rect x="280" y="136" width="104" height="80" rx="8" fill="#1a3040"/>
  <!-- Product images (colored boxes) -->
  <rect x="16" y="136" width="80" height="50" rx="8" fill="#1FC7C7" opacity="0.3"/>
  <rect x="104" y="136" width="80" height="50" rx="8" fill="#1FC7C7" opacity="0.2"/>
  <rect x="192" y="136" width="80" height="50" rx="8" fill="#1FC7C7" opacity="0.25"/>
  <rect x="280" y="136" width="104" height="50" rx="8" fill="#1FC7C7" opacity="0.15"/>
  <!-- Price labels -->
  <rect x="20" y="192" width="40" height="8" rx="4" fill="#1FC7C7" opacity="0.7"/>
  <rect x="108" y="192" width="40" height="8" rx="4" fill="#1FC7C7" opacity="0.7"/>
  <rect x="196" y="192" width="40" height="8" rx="4" fill="#1FC7C7" opacity="0.7"/>
  <rect x="284" y="192" width="40" height="8" rx="4" fill="#1FC7C7" opacity="0.7"/>
</svg>
