<svg xmlns="http://www.w3.org/2000/svg" viewBox="0 0 400 240" fill="none">
  <defs>
    <linearGradient id="erpGrad" x1="0%" y1="0%" x2="100%" y2="100%">
      <stop offset="0%" style="stop-color:#1FC7C7;stop-opacity:1" />
      <stop offset="100%" style="stop-color:#0e6262;stop-opacity:1" />
    </linearGradient>
  </defs>
  <rect width="400" height="240" rx="12" fill="#0d1f26"/>
  <!-- Sidebar -->
  <rect x="0" y="0" width="90" height="240" rx="0" fill="#1a3040"/>
  <rect x="0" y="0" width="90" height="240" rx="12" fill="#1a3040"/>
  <!-- Sidebar items -->
  <rect x="10" y="20" width="70" height="28" rx="6" fill="#1FC7C7" opacity="0.9"/>
  <text x="45" y="39" font-family="Inter, sans-serif" font-size="9" font-weight="600" fill="white" text-anchor="middle">Dashboard</text>
  <rect x="10" y="56" width="70" height="24" rx="5" fill="white" opacity="0.08"/>
  <text x="45" y="72" font-family="Inter, sans-serif" font-size="8" fill="white" opacity="0.6" text-anchor="middle">Inventory</text>
  <rect x="10" y="86" width="70" height="24" rx="5" fill="white" opacity="0.08"/>
  <text x="45" y="102" font-family="Inter, sans-serif" font-size="8" fill="white" opacity="0.6" text-anchor="middle">Billing</text>
  <rect x="10" y="116" width="70" height="24" rx="5" fill="white" opacity="0.08"/>
  <text x="45" y="132" font-family="Inter, sans-serif" font-size="8" fill="white" opacity="0.6" text-anchor="middle">Reports</text>
  <rect x="10" y="146" width="70" height="24" rx="5" fill="white" opacity="0.08"/>
  <text x="45" y="162" font-family="Inter, sans-serif" font-size="8" fill="white" opacity="0.6" text-anchor="middle">HR Module</text>
  <!-- Main content -->
  <!-- KPI cards row -->
  <rect x="102" y="16" width="78" height="50" rx="8" fill="#1a3040"/>
  <text x="141" y="37" font-family="Inter, sans-serif" font-size="14" font-weight="700" fill="#1FC7C7" text-anchor="middle">₹12M</text>
  <text x="141" y="54" font-family="Inter, sans-serif" font-size="8" fill="white" opacity="0.5" text-anchor="middle">Revenue</text>
  <rect x="188" y="16" width="78" height="50" rx="8" fill="#1a3040"/>
  <text x="227" y="37" font-family="Inter, sans-serif" font-size="14" font-weight="700" fill="#1FC7C7" text-anchor="middle">1,240</text>
  <text x="227" y="54" font-family="Inter, sans-serif" font-size="8" fill="white" opacity="0.5" text-anchor="middle">Orders</text>
  <rect x="274" y="16" width="78" height="50" rx="8" fill="#1a3040"/>
  <text x="313" y="37" font-family="Inter, sans-serif" font-size="14" font-weight="700" fill="#1FC7C7" text-anchor="middle">94%</text>
  <text x="313" y="54" font-family="Inter, sans-serif" font-size="8" fill="white" opacity="0.5" text-anchor="middle">Efficiency</text>
  <!-- Chart -->
  <rect x="102" y="76" width="170" height="150" rx="8" fill="#1a3040"/>
  <text x="187" y="94" font-family="Inter, sans-serif" font-size="9" font-weight="600" fill="white" opacity="0.7" text-anchor="middle">Monthly Performance</text>
  <!-- Bar chart -->
  <rect x="118" y="190" width="14" height="24" rx="3" fill="#1FC7C7" opacity="0.5"/>
  <rect x="136" y="175" width="14" height="39" rx="3" fill="#1FC7C7" opacity="0.6"/>
  <rect x="154" y="162" width="14" height="52" rx="3" fill="#1FC7C7" opacity="0.75"/>
  <rect x="172" y="170" width="14" height="44" rx="3" fill="#1FC7C7" opacity="0.65"/>
  <rect x="190" y="150" width="14" height="64" rx="3" fill="#1FC7C7" opacity="0.9"/>
  <rect x="208" y="158" width="14" height="56" rx="3" fill="#1FC7C7" opacity="0.8"/>
  <rect x="226" y="146" width="14" height="68" rx="3" fill="#1FC7C7"/>
  <!-- Line chart -->
  <polyline points="118,186 136,171 154,158 172,164 190,146 208,152 226,142" stroke="#1FC7C7" stroke-width="2" fill="none" stroke-linecap="round" opacity="0.4"/>
  <!-- Recent records table -->
  <rect x="280" y="76" width="110" height="150" rx="8" fill="#1a3040"/>
  <text x="335" y="94" font-family="Inter, sans-serif" font-size="9" font-weight="600" fill="white" opacity="0.7" text-anchor="middle">Recent Records</text>
  <rect x="290" y="100" width="90" height="14" rx="3" fill="white" opacity="0.06"/>
  <rect x="290" y="118" width="90" height="14" rx="3" fill="white" opacity="0.06"/>
  <rect x="290" y="136" width="90" height="14" rx="3" fill="white" opacity="0.06"/>
  <rect x="290" y="154" width="90" height="14" rx="3" fill="white" opacity="0.06"/>
  <rect x="290" y="172" width="90" height="14" rx="3" fill="white" opacity="0.06"/>
  <rect x="290" y="190" width="90" height="14" rx="3" fill="white" opacity="0.06"/>
  <!-- Table row labels -->
  <rect x="294" y="105" width="30" height="4" rx="2" fill="#1FC7C7" opacity="0.5"/>
  <rect x="294" y="123" width="30" height="4" rx="2" fill="#1FC7C7" opacity="0.4"/>
  <rect x="294" y="141" width="30" height="4" rx="2" fill="#1FC7C7" opacity="0.5"/>
  <rect x="294" y="159" width="30" height="4" rx="2" fill="#1FC7C7" opacity="0.4"/>
  <rect x="294" y="177" width="30" height="4" rx="2" fill="#1FC7C7" opacity="0.5"/>
  <rect x="294" y="195" width="30" height="4" rx="2" fill="#1FC7C7" opacity="0.4"/>
</svg>
