<svg xmlns="http://www.w3.org/2000/svg" viewBox="0 0 64 64" fill="none">
  <rect width="64" height="64" rx="16" fill="#EBF9F9"/>
  <!-- Cloud shape -->
  <path d="M44 38c3.3 0 6-2.7 6-6s-2.7-6-6-6c-.4 0-.8 0-1.2.1C41.8 22.9 38 20 33.5 20c-5.2 0-9.5 4-10 9.1C20.8 29.4 18 32.3 18 36c0 3.3 2.7 6 6 6h20z" fill="#1FC7C7" opacity="0.15" stroke="#1FC7C7" stroke-width="2" stroke-linejoin="round"/>
  <!-- Server lines below -->
  <rect x="26" y="40" width="12" height="2" rx="1" fill="#1FC7C7"/>
  <rect x="22" y="44" width="20" height="3" rx="1.5" fill="#1FC7C7" opacity="0.5"/>
  <rect x="24" y="49" width="16" height="3" rx="1.5" fill="#1FC7C7" opacity="0.3"/>
</svg>
