<svg xmlns="http://www.w3.org/2000/svg" viewBox="0 0 64 64" fill="none">
  <!-- Docker whale simplified -->
  <rect x="8" y="32" width="48" height="6" rx="3" fill="#2496ED"/>
  <!-- Whale body -->
  <path d="M10 32 Q12 24 20 26 Q22 20 28 22 Q32 16 40 20 Q48 18 52 26 Q58 26 58 32 Z" fill="#2496ED"/>
  <!-- Containers on whale -->
  <rect x="18" y="22" width="7" height="7" rx="1" fill="white" opacity="0.8"/>
  <rect x="27" y="20" width="7" height="9" rx="1" fill="white" opacity="0.8"/>
  <rect x="36" y="22" width="7" height="7" rx="1" fill="white" opacity="0.8"/>
  <!-- Water -->
  <path d="M8 38 Q16 42 24 38 Q32 42 40 38 Q48 42 56 38 L56 46 Q48 50 40 46 Q32 50 24 46 Q16 50 8 46 Z" fill="#2496ED" opacity="0.3"/>
</svg>
