<svg xmlns="http://www.w3.org/2000/svg" viewBox="0 0 64 64" fill="none">
  <!-- Python logo simplified -->
  <path d="M32 8 C22 8 18 13 18 20 L18 26 L32 26 L32 28 L14 28 C10 28 8 31 8 36 L8 44 C8 50 13 56 20 56 L26 56 L26 50 C26 44 29 42 32 42 L44 42 C50 42 56 38 56 30 L56 24 C56 16 50 8 42 8 Z" fill="#3776AB"/>
  <path d="M32 56 C42 56 46 51 46 44 L46 38 L32 38 L32 36 L50 36 C54 36 56 33 56 28 L56 20 C56 14 51 8 44 8 L38 8 L38 14 C38 20 35 22 32 22 L20 22 C14 22 8 26 8 34 L8 40 C8 48 14 56 22 56 Z" fill="#FFD43B"/>
  <circle cx="26" cy="17" r="3" fill="white"/>
  <circle cx="38" cy="47" r="3" fill="white"/>
</svg>
